<?xml version="1.0" standalone="no"?>
<!DOCTYPE svg PUBLIC "-//W3C//DTD SVG 20010904//EN"
 "http://www.w3.org/TR/2001/REC-SVG-20010904/DTD/svg10.dtd">
<svg version="1.0" xmlns="http://www.w3.org/2000/svg"
 width="512.000000pt" height="512.000000pt" viewBox="0 0 512.000000 512.000000"
 preserveAspectRatio="xMidYMid meet">
<metadata>
Created by potrace 1.11, written by Peter Selinger 2001-2013
</metadata>
<g transform="translate(0.000000,512.000000) scale(0.100000,-0.100000)"
fill="#000000" stroke="none">
<path d="M4253 5079 c-83 -21 -131 -44 -199 -95 -41 -31 -2293 -2276 -2346
-2340 -10 -11 -29 -60 -43 -110 -14 -49 -30 -105 -35 -124 -6 -19 -55 -199
-110 -400 -56 -201 -109 -395 -120 -432 -24 -78 -25 -110 -6 -146 20 -40 46
-59 87 -67 36 -7 129 17 639 160 47 13 153 42 235 65 83 22 184 51 225 63 l75
21 1171 1171 c1258 1258 1228 1225 1270 1370 22 75 25 240 5 310 -32 115 -78
183 -226 331 -126 128 -148 146 -225 182 -132 63 -259 77 -397 41z m238 -250
c56 -14 119 -61 221 -167 104 -107 131 -150 146 -230 21 -117 -16 -206 -135
-328 l-85 -87 -301 301 -300 300 86 84 c137 133 226 164 368 127z m-335 -691
c162 -161 294 -296 294 -301 0 -8 -1847 -1857 -1856 -1857 -4 0 -139 133 -301
295 -187 187 -292 299 -287 306 13 22 1839 1847 1848 1848 5 1 141 -131 302
-291z m-2041 -2048 c210 -209 234 -235 215 -242 -12 -4 -63 -19 -113 -32 -51
-14 -175 -48 -277 -76 -102 -28 -199 -55 -216 -59 l-32 -9 25 92 c13 50 35
129 48 176 61 220 105 382 105 388 0 7 -25 31 245 -238z"/>
<path d="M597 4604 c-1 -1 -27 -5 -57 -9 -137 -17 -285 -98 -376 -205 -81 -95
-118 -166 -146 -280 -17 -71 -18 -157 -15 -1830 2 -1679 3 -1757 21 -1810 84
-251 277 -420 521 -457 22 -3 873 -6 1890 -6 1448 0 1863 3 1910 12 69 15 208
77 250 112 103 87 153 150 200 252 57 124 58 135 58 807 1 578 -1 618 -18 647
-37 62 -114 82 -177 46 -60 -36 -59 -24 -62 -701 -3 -686 1 -653 -72 -759 -38
-56 -112 -112 -184 -140 -42 -17 -148 -18 -1890 -20 -1205 -1 -1860 1 -1890 8
-153 34 -275 164 -298 317 -4 26 -7 810 -7 1742 1 1340 4 1703 14 1735 30 97
97 183 178 230 90 54 108 55 758 55 567 0 602 1 628 19 83 54 84 156 2 214
-29 22 -33 22 -633 22 -332 0 -604 -1 -605 -1z"/>
</g>
</svg>
